<svg width="45" height="45" viewBox="0 0 45 45" fill="none" xmlns="http://www.w3.org/2000/svg">
<path d="M9.8595 21.1908V20.6392C9.85423 19.8467 9.34822 19.1023 8.54704 18.9737C8.19388 18.9148 7.82492 18.9416 7.46649 18.9416H1.83179C1.73164 18.9416 1.63149 18.9363 1.53134 18.947C0.803944 18.9952 0.155656 19.5307 0.0396096 20.2804C0.00798419 20.4732 0.00798444 20.6446 0.00798444 20.8373V42.2953C0.00798444 42.6755 -0.0130995 43.0664 0.0132554 43.4467C0.0659658 44.2821 0.709031 44.9354 1.5366 44.9943C1.63148 44.9997 1.72109 44.9997 1.81596 44.9997H8.2624C8.2993 44.9997 8.33619 44.9997 8.37309 44.989H8.37836C9.23753 44.898 9.85419 44.2125 9.86479 43.3182V42.7774V21.1901L9.8595 21.1908Z" fill="#0067C6"/>
<path d="M44.7592 19.7027C44.3217 18.5139 43.3518 17.5821 42.1501 17.2233C41.6599 17.0787 41.1644 17.0627 40.6584 17.0627H29.0152C28.7569 17.0627 28.4723 17.0305 28.2035 17.0412C28.5461 14.9206 28.8676 12.7946 29.147 10.6578C29.4422 8.36582 29.8164 5.98276 29.0205 3.755C28.272 1.64504 26.4272 -0.277487 24.05 0.0331262C23.1592 0.150938 22.3158 0.541868 21.7044 1.21663C21.4514 1.48975 21.1351 1.87532 21.0402 2.2555C21.0139 2.36795 21.0297 2.50183 21.0297 2.61966V7.34289C21.0297 8.01764 20.9032 8.64958 20.6027 9.26004C19.7277 11.054 18.8528 12.8427 17.9778 14.6366C17.3295 15.9594 16.6865 17.2821 16.0434 18.6048C15.8589 18.9796 15.6744 19.3598 15.4899 19.7347C15.1631 20.4095 14.6044 20.9075 13.8506 21.0093C13.5607 21.0468 13.2603 21.0253 12.9704 21.0253C12.8281 21.0253 12.7068 21.1485 12.7068 21.2931V39.9504C12.7068 40.8073 12.6699 41.6802 12.7068 42.537V42.5745C12.7068 42.6655 12.7543 42.7673 12.8386 42.8048C13.2761 43.019 13.7083 43.2332 14.1458 43.442C15.0366 43.8704 16.0697 44.0739 17.0501 44.1543C17.5825 44.1971 18.1148 44.1864 18.6472 44.1864H36.8213C38.1812 44.1864 39.4568 43.4742 40.0366 42.189C40.7534 40.5985 40.1578 38.7135 38.7452 37.8137C39.4199 37.7602 40.0524 37.5246 40.5953 37.0908C42.0553 35.9341 42.3136 33.7331 41.1751 32.2496C40.9274 31.9283 40.6269 31.6552 40.2896 31.4464C40.9643 31.3875 41.6021 31.1572 42.1397 30.7234C43.5997 29.5668 43.8633 27.3657 42.7195 25.8877C42.4454 25.5289 42.108 25.2397 41.7286 25.0201C42.7248 24.822 43.6262 24.2597 44.2428 23.4136C45.0177 22.364 45.2127 20.9288 44.7594 19.7025L44.7592 19.7027Z" fill="#0067C6"/>
</svg>
