<svg width="45" height="45" viewBox="0 0 45 45" fill="none" xmlns="http://www.w3.org/2000/svg">
<path d="M18.9064 30.0071L19.8412 29.0699L15.9151 25.1343L14.9803 26.0715L14.513 25.6031C13.765 24.7598 13.0174 24.2911 12.2693 24.3849C11.7085 24.3849 11.2409 24.7598 10.8673 25.322C10.3064 26.2592 10.5869 27.29 10.6804 27.9457C10.6804 28.1329 10.774 28.2268 10.774 28.414C10.774 28.6951 10.774 29.07 10.1196 29.1639C9.18474 29.4449 7.96949 29.726 6.75425 30.382C5.07174 31.3192 3.94973 32.1624 3.29532 33.0057C-0.163964 37.5038 0.0232707 41.3458 0.0232707 41.5334C0.0232707 41.8145 0.116853 42.0017 0.303688 42.0955L2.82775 44.7192C3.01458 44.9065 3.20175 45.0003 3.38858 45.0003H3.669C4.60387 45.0003 7.96914 44.813 11.8953 41.7206C12.7366 41.0646 13.5778 39.9403 14.5126 38.2533C15.167 37.1289 15.5411 35.9107 15.7279 34.8798C15.9147 34.2238 16.1951 34.2238 16.4759 34.2238C16.5695 34.2238 16.7563 34.3176 16.9431 34.3176C17.3171 34.4114 17.6911 34.5049 18.1584 34.5049C18.6256 34.5049 19.0932 34.4111 19.5604 34.13C20.1212 33.7551 20.4953 33.2867 20.5888 32.7245C20.6824 31.9747 20.3084 31.2253 19.4672 30.5692L18.9064 30.0071Z" fill="#0067C6"/>
<path d="M38.0699 10.7975L40.594 9.57929C40.6876 9.48549 40.8744 9.39202 40.968 9.2982L44.8005 4.14438C45.0809 3.76947 45.0809 3.20724 44.7069 2.92619L42.0896 0.302556C41.8092 0.0214582 41.2484 -0.0723512 40.8744 0.208746L35.733 4.05057C35.6395 4.14438 35.5462 4.23785 35.4526 4.42548L34.2374 6.95566L24.9824 15.952L28.9085 19.8876L38.0699 10.7975Z" fill="#0067C6"/>
<path d="M42.1823 29.351C39.8454 27.0084 36.4801 26.1648 33.3015 27.0084L18.0641 11.64C18.2509 10.7968 18.3445 10.0469 18.3445 9.20365C18.3445 6.86107 17.4096 4.51814 15.6336 2.73776C13.2031 0.207577 9.5574 -0.63576 6.19204 0.48863C6.00521 0.58244 5.72479 0.863537 5.63121 1.23844C5.63121 1.51954 5.72479 1.80063 5.91163 2.08173L10.4922 6.67344C11.5207 7.70437 11.5207 9.48476 10.4922 10.5153C9.46379 11.5462 7.68771 11.5462 6.6597 10.5153L2.0791 5.92355C1.79868 5.73627 1.51827 5.64246 1.14422 5.73627C0.863807 5.73627 0.583398 6.01737 0.489807 6.29846C-0.631864 9.57809 0.20939 13.2327 2.63992 15.669C4.32243 17.4493 6.75292 18.3864 9.18341 18.3864C9.93141 18.3864 10.7727 18.2926 11.5203 18.1053L19.1859 25.7895L26.8515 33.4736C26.0103 36.6598 26.9451 40.033 29.1884 42.376C30.9645 44.1564 33.2082 44.9996 35.6387 44.9996C36.6671 44.9996 37.6019 44.8124 38.63 44.5313C38.9104 44.4375 39.1908 44.1564 39.2844 43.8753C39.378 43.5942 39.2844 43.2192 39.004 43.032L34.4237 38.4403C33.9565 37.9719 33.5825 37.2221 33.5825 36.4723C33.5825 35.7225 33.8629 35.0668 34.4237 34.5043C34.9846 33.9421 35.639 33.661 36.387 33.661C37.135 33.661 37.789 33.9421 38.3502 34.5043L42.9308 39.096C43.2112 39.2833 43.4916 39.3771 43.772 39.3771C44.0525 39.2833 44.3329 39.096 44.4265 38.8149C44.7069 37.8778 44.8937 36.8469 44.8937 35.8163C44.8934 33.38 43.9586 31.0374 42.1825 29.3508L42.1823 29.351Z" fill="#0067C6"/>
</svg>
