<svg width="45" height="45" viewBox="0 0 45 45" fill="none" xmlns="http://www.w3.org/2000/svg">
<path d="M42.7498 0H2.24987C1.65322 0 1.08067 0.236925 0.658799 0.658801C0.236925 1.08068 0 1.65317 0 2.24988V33.7502C0 34.3469 0.236925 34.9191 0.658799 35.3409C1.08067 35.7632 1.65317 36.0001 2.24987 36.0001H16.6273L14.3775 40.5002H13.4998C12.696 40.5002 11.9532 40.9289 11.5513 41.625C11.1494 42.3211 11.1494 43.1791 11.5513 43.8753C11.9532 44.5714 12.696 45 13.4998 45H31.5001C32.3039 45 33.0464 44.5713 33.4483 43.8753C33.8502 43.1792 33.8502 42.3211 33.4483 41.625C33.0464 40.9289 32.3036 40.5002 31.4998 40.5002H30.6447L28.3948 36.0001H42.7501C43.3468 36.0001 43.9193 35.7632 44.3412 35.3409C44.7631 34.9191 45 34.3469 45 33.7502V2.24988C45 1.65322 44.7631 1.08068 44.3412 0.658801C43.9193 0.236925 43.3465 0 42.7498 0ZM40.5 24.7494H4.49935V4.49936H40.5V24.7494Z" fill="#0067C6"/>
</svg>
